<?xml version="1.0" standalone="no"?>
<!DOCTYPE svg PUBLIC "-//W3C//DTD SVG 20010904//EN"
 "http://www.w3.org/TR/2001/REC-SVG-20010904/DTD/svg10.dtd">
<svg version="1.0" xmlns="http://www.w3.org/2000/svg"
 width="1406.000000pt" height="1406.000000pt" viewBox="0 0 1406.000000 1406.000000"
 preserveAspectRatio="xMidYMid meet">
<metadata>
Created by potrace 1.11, written by Peter Selinger 2001-2013
</metadata>
<g transform="translate(0.000000,1406.000000) scale(0.100000,-0.100000)"
fill="#000000" stroke="none">
<path d="M6030 13679 c-2024 -134 -3857 -1203 -4973 -2899 -1488 -2263 -1396
-5233 229 -7397 624 -830 1413 -1482 2339 -1934 183 -89 514 -233 520 -227 2
2 -193 514 -433 1138 l-437 1135 1 80 c0 96 21 151 85 220 53 57 70 66 289
151 150 57 185 67 242 68 38 1 68 2 68 4 0 1 -81 133 -180 293 -229 368 -222
356 -228 454 -5 96 18 168 73 232 30 35 329 233 353 233 4 0 13 4 21 9 11 7
-20 50 -135 188 -82 99 -174 215 -204 258 -30 43 -83 120 -118 169 -308 441
-532 998 -621 1546 -39 237 -46 339 -46 640 1 313 11 438 60 706 269 1460
1386 2654 2830 3022 344 88 584 117 970 116 377 0 639 -32 972 -119 1092 -286
2015 -1049 2504 -2070 538 -1126 495 -2472 -115 -3550 -176 -311 -383 -582
-636 -836 -233 -233 -434 -394 -700 -558 -567 -351 -1161 -535 -1851 -573
l-216 -12 18 -30 c27 -47 56 -153 63 -231 14 -148 -47 -337 -144 -448 -62 -70
-214 -194 -278 -226 -111 -55 -158 -66 -287 -66 -148 0 -230 23 -343 99 -68
46 -107 87 -332 353 -140 166 -259 305 -264 310 -11 10 10 -25 406 -662 184
-297 343 -556 354 -575 15 -28 19 -56 19 -135 0 -91 -2 -104 -29 -152 -15 -28
-42 -65 -60 -81 -51 -50 -316 -211 -375 -228 -107 -32 -246 2 -322 78 -19 19
-182 273 -364 566 -181 292 -330 530 -332 528 -2 -2 180 -479 403 -1061 309
-807 407 -1072 411 -1115 2 -32 -2 -78 -11 -110 -8 -30 -12 -58 -8 -62 22 -22
542 -89 842 -109 231 -15 773 -6 990 16 507 51 996 154 1427 299 l102 34 40
-73 c188 -342 545 -599 954 -687 146 -31 408 -31 553 0 402 86 735 315 938
642 73 119 2802 4850 2843 4930 53 103 107 266 130 392 22 123 22 360 0 485
-53 294 -188 554 -397 764 -198 199 -408 318 -681 384 -56 13 -103 26 -106 28
-2 2 -13 67 -24 143 -117 803 -390 1595 -781 2274 -287 498 -595 904 -993
1309 -265 270 -472 452 -749 660 -915 688 -2028 1126 -3166 1245 -333 35 -796
46 -1110 25z"/>
<path d="M7313 11182 c-71 -25 -114 -60 -147 -121 -58 -108 -42 -226 44 -311
206 -207 539 28 420 295 -51 116 -197 179 -317 137z"/>
<path d="M8025 10801 c-45 -11 -69 -26 -103 -66 -38 -43 -46 -69 -40 -141 6
-66 27 -98 92 -139 289 -182 442 -301 632 -490 551 -550 864 -1263 890 -2030
7 -194 14 -231 51 -276 92 -109 262 -80 318 53 50 121 -17 694 -127 1076 -101
355 -307 764 -533 1062 -239 315 -527 591 -835 799 -203 137 -274 169 -345
152z"/>
</g>
</svg>
